<?xml version="1.0" encoding="UTF-8" standalone="no"?>
<svg xmlns="http://www.w3.org/2000/svg" viewBox="0 0 500 500">
  <!-- Background (transparent) -->
  <rect width="500" height="500" fill="transparent"/>
  
  <!-- Main 'G' circle -->
  <path d="M250,400 C180,400 125,345 125,275 C125,205 180,150 250,150 C320,150 375,205 375,275 L320,275 C320,235 290,205 250,205 C210,205 180,235 180,275 C180,315 210,345 250,345 L250,400 Z" fill="#22c55e"/>
  
  <!-- Eyes -->
  <circle cx="315" cy="275" r="25" fill="#22c55e"/>
  <circle cx="365" cy="275" r="25" fill="#22c55e"/>
  
  <!-- Eye details -->
  <circle cx="325" cy="265" r="8" fill="white"/>
  <circle cx="375" cy="265" r="8" fill="white"/>
  
  <!-- Antenna 1 -->
  <path d="M200,150 L200,100 C200,80 220,70 230,70 C240,70 250,80 250,100 L250,70 C250,50 270,40 280,40 C290,40 300,50 300,70 L200,150 Z" fill="#16a34a"/>
  
  <!-- Antenna 2 -->
  <path d="M300,150 L300,100 C300,80 320,70 330,70 C340,70 350,80 350,100 L350,70 C350,50 370,40 380,40 C390,40 400,50 400,70 L300,150 Z" fill="#16a34a"/>
  
  <!-- Antenna disks 1 -->
  <ellipse cx="230" cy="120" rx="25" ry="8" fill="#4ade80"/>
  <ellipse cx="230" cy="100" rx="20" ry="6" fill="#4ade80"/>
  <ellipse cx="230" cy="80" rx="15" ry="5" fill="#4ade80"/>
  
  <!-- Antenna disks 2 -->
  <ellipse cx="350" cy="120" rx="25" ry="8" fill="#4ade80"/>
  <ellipse cx="350" cy="100" rx="20" ry="6" fill="#4ade80"/>
  <ellipse cx="350" cy="80" rx="15" ry="5" fill="#4ade80"/>
  
  <!-- Antenna knobs -->
  <circle cx="230" cy="50" r="15" fill="#16a34a"/>
  <circle cx="350" cy="50" r="15" fill="#16a34a"/>
  
  <!-- Lightning bolt -->
  <path d="M250,50 L290,30 L270,60 L330,40 L290,80 L350,60 L300,100 Z" fill="#eab308" stroke="#eab308" stroke-width="2"/>
</svg>